<svg id="svg" version="1.1" xmlns="http://www.w3.org/2000/svg" xmlns:xlink="http://www.w3.org/1999/xlink" width="400" height="400" viewBox="0, 0, 400,400"><g id="svgg"><path id="path0" d="M0.000 200.000 L 0.000 400.000 200.000 400.000 L 400.000 400.000 400.000 200.000 L 400.000 0.000 200.000 0.000 L 0.000 0.000 0.000 200.000 M207.283 62.695 C 210.487 66.133,219.255 75.542,226.769 83.604 C 234.282 91.667,241.089 99.006,241.895 99.914 L 243.359 101.565 243.359 110.536 L 243.359 119.508 226.244 119.617 L 209.129 119.727 207.006 121.209 C 205.838 122.025,204.156 123.228,203.267 123.884 C 201.369 125.283,201.493 125.322,196.782 121.830 L 193.682 119.531 176.333 119.531 L 158.984 119.531 158.984 110.560 L 158.984 101.589 160.805 99.525 C 161.807 98.390,165.806 94.037,169.692 89.853 C 173.578 85.668,179.219 79.593,182.227 76.352 C 185.234 73.112,190.669 67.258,194.303 63.344 C 197.937 59.430,201.034 56.277,201.185 56.337 C 201.336 56.396,204.080 59.258,207.283 62.695 M189.413 127.509 C 191.724 127.616,193.193 127.856,193.380 128.158 C 193.542 128.421,194.208 128.621,194.859 128.603 C 195.510 128.584,196.251 128.821,196.507 129.128 C 196.762 129.436,197.262 129.688,197.617 129.688 C 197.973 129.688,198.610 129.918,199.034 130.201 C 200.059 130.884,201.563 130.942,201.563 130.298 C 201.563 129.866,203.013 129.284,204.492 129.123 C 204.707 129.100,205.059 128.977,205.273 128.850 C 205.876 128.493,208.686 127.970,209.668 128.033 C 210.151 128.063,210.547 127.921,210.547 127.716 C 210.547 127.486,216.658 127.344,226.521 127.344 C 243.764 127.344,242.969 127.248,242.969 129.329 C 242.969 130.049,243.376 130.078,253.333 130.078 C 269.001 130.078,267.578 128.051,267.578 150.371 L 267.578 167.188 242.583 167.188 L 217.589 167.188 214.947 169.380 C 213.494 170.585,211.949 171.948,211.515 172.407 C 211.080 172.866,209.899 173.857,208.890 174.609 C 207.881 175.361,207.050 176.113,207.043 176.279 C 207.037 176.445,208.347 175.590,209.956 174.380 C 211.819 172.977,213.106 172.265,213.501 172.416 C 213.842 172.547,214.384 172.391,214.705 172.069 C 215.027 171.748,215.882 171.484,216.606 171.484 C 217.330 171.484,218.046 171.284,218.198 171.040 C 218.432 170.661,257.948 170.867,264.963 171.284 C 267.000 171.405,267.352 171.894,267.578 174.921 L 267.773 177.539 279.775 177.734 C 295.722 177.994,294.221 175.841,293.868 197.949 L 293.623 213.281 258.756 213.281 L 223.888 213.281 222.003 214.718 C 220.084 216.179,217.015 218.605,208.097 225.712 C 205.353 227.899,202.778 229.688,202.374 229.688 C 201.638 229.688,200.738 229.021,187.695 218.810 L 180.664 213.306 144.824 213.294 L 108.984 213.281 108.984 196.881 L 108.984 180.481 110.124 179.205 L 111.263 177.930 122.917 177.734 L 134.570 177.539 134.884 174.023 C 135.267 169.740,134.994 170.010,139.261 169.698 C 147.723 169.081,184.823 169.362,183.847 170.037 C 183.580 170.222,183.794 170.315,184.375 170.268 C 185.819 170.151,188.250 170.724,188.580 171.259 C 188.738 171.516,189.438 171.956,190.137 172.238 C 190.835 172.520,191.406 172.905,191.406 173.094 C 191.406 173.283,191.648 173.438,191.944 173.438 C 192.240 173.438,192.694 173.692,192.952 174.003 C 193.210 174.314,194.067 174.940,194.855 175.393 C 196.137 176.130,196.065 176.008,194.172 174.242 C 193.008 173.155,191.904 172.266,191.718 172.266 C 191.533 172.266,191.281 172.003,191.158 171.682 C 191.034 171.360,190.249 170.713,189.412 170.242 C 188.575 169.772,187.891 169.241,187.891 169.063 C 187.891 167.262,186.829 167.191,160.059 167.189 L 134.766 167.188 134.766 150.409 C 134.766 128.168,133.319 130.323,148.361 130.153 C 157.971 130.044,159.047 129.967,159.233 129.371 C 160.017 126.857,158.705 127.064,172.912 127.209 C 179.969 127.280,187.394 127.415,189.413 127.509 M176.842 223.932 C 177.319 224.197,181.913 227.612,187.053 231.521 C 192.192 235.430,196.491 238.535,196.605 238.421 C 196.719 238.308,197.011 238.586,197.254 239.040 C 197.497 239.494,197.821 239.788,197.975 239.693 C 198.129 239.598,198.846 240.002,199.568 240.591 L 200.880 241.662 201.827 240.716 C 202.530 240.013,203.025 239.832,203.750 240.014 C 204.412 240.180,205.087 240.003,205.842 239.466 C 206.455 239.029,207.118 238.672,207.316 238.672 C 207.514 238.672,209.596 237.239,211.943 235.489 C 214.291 233.738,218.848 230.354,222.070 227.969 L 227.930 223.633 272.266 223.533 C 313.879 223.439,316.686 223.475,317.969 224.119 C 320.674 225.476,320.702 225.666,320.703 243.066 L 320.703 258.594 276.465 258.608 C 242.488 258.618,232.039 258.731,231.418 259.096 C 230.973 259.357,224.854 263.965,217.819 269.336 C 203.709 280.110,203.214 280.464,202.279 280.467 C 201.921 280.468,195.308 275.741,187.583 269.962 C 179.858 264.184,173.175 259.262,172.732 259.025 C 172.158 258.718,159.058 258.594,127.154 258.594 L 82.382 258.594 82.500 242.423 C 82.630 224.430,82.505 225.242,85.352 223.985 C 87.016 223.251,175.527 223.199,176.842 223.932 M235.156 268.402 C 234.688 268.739,234.728 268.765,235.352 268.532 C 237.054 267.895,343.061 268.224,344.608 268.870 C 347.558 270.103,347.448 269.260,347.572 291.486 L 347.683 311.328 294.838 311.341 L 241.992 311.355 231.355 318.666 C 225.505 322.687,216.660 328.767,211.700 332.178 C 206.476 335.770,202.304 338.379,201.784 338.379 C 200.900 338.379,196.906 335.752,175.586 321.146 C 169.785 317.172,164.184 313.337,163.140 312.624 L 161.240 311.328 108.355 311.328 L 55.469 311.328 55.469 291.620 C 55.469 269.824,55.404 270.401,58.004 269.142 C 60.386 267.989,169.713 268.082,170.359 269.238 C 170.570 269.614,170.901 269.922,171.095 269.922 C 171.544 269.922,179.005 275.315,179.389 275.916 C 179.546 276.164,179.678 276.214,179.682 276.026 C 179.685 275.839,179.943 275.898,180.256 276.158 C 180.569 276.417,181.036 276.500,181.293 276.340 C 181.571 276.169,181.659 276.216,181.510 276.457 C 181.185 276.983,186.625 280.963,187.191 280.613 C 187.434 280.464,187.511 280.526,187.368 280.756 C 187.103 281.186,188.890 282.552,189.717 282.552 C 189.983 282.552,190.115 282.690,190.011 282.858 C 189.777 283.237,191.214 284.047,191.541 283.720 C 191.878 283.382,193.004 284.393,192.749 284.805 C 192.633 284.993,192.839 285.032,193.208 284.890 C 193.643 284.723,193.785 284.784,193.612 285.063 C 193.466 285.299,193.552 285.620,193.804 285.776 C 194.090 285.952,194.157 285.889,193.983 285.607 C 193.829 285.359,193.880 285.156,194.095 285.156 C 194.309 285.156,194.585 285.318,194.707 285.515 C 195.064 286.093,199.869 288.672,200.588 288.672 C 200.950 288.672,201.336 288.323,201.448 287.897 C 201.645 287.142,203.533 285.938,204.519 285.938 C 204.791 285.938,206.327 285.059,207.933 283.984 C 209.539 282.910,211.048 282.031,211.286 282.031 C 211.524 282.031,211.719 281.855,211.719 281.641 C 211.719 281.426,211.907 281.250,212.137 281.250 C 212.367 281.250,212.821 280.985,213.145 280.660 C 213.470 280.336,213.891 280.167,214.081 280.285 C 214.272 280.403,214.651 280.141,214.925 279.703 C 215.198 279.265,215.555 278.906,215.718 278.906 C 215.881 278.906,216.870 278.291,217.917 277.539 C 218.964 276.787,219.976 276.172,220.168 276.172 C 220.359 276.172,220.960 275.776,221.502 275.293 C 222.928 274.023,224.911 272.656,225.327 272.656 C 225.524 272.656,225.891 272.409,226.142 272.106 C 226.527 271.642,229.061 270.218,229.688 270.114 C 229.795 270.096,230.620 269.696,231.520 269.224 C 232.421 268.753,233.432 268.472,233.766 268.600 C 234.101 268.729,234.375 268.639,234.375 268.401 C 234.375 268.163,234.683 267.971,235.059 267.975 C 235.650 267.980,235.663 268.038,235.156 268.402 " stroke="none" fill="#333c54" fill-rule="evenodd"></path><path id="path1" d="M199.931 57.366 C 199.432 57.980,192.248 65.759,183.968 74.652 C 163.613 96.511,158.984 101.562,158.984 101.911 C 158.984 102.426,161.380 101.882,161.596 101.318 C 161.725 100.984,162.339 100.801,163.225 100.833 L 164.648 100.884 163.281 101.138 L 161.914 101.392 163.477 101.668 C 164.336 101.820,173.226 101.946,183.231 101.949 L 201.424 101.953 201.426 79.980 C 201.427 59.178,201.464 58.014,202.119 58.131 C 202.769 58.247,202.767 58.196,202.088 57.265 C 201.172 56.007,201.030 56.014,199.931 57.366 M137.695 130.675 C 136.836 130.985,136.109 131.241,136.080 131.244 C 135.122 131.350,134.766 134.597,134.766 143.223 L 134.766 152.539 161.539 152.436 C 188.173 152.334,189.981 152.410,189.742 153.625 C 189.691 153.887,189.873 154.056,190.148 154.000 C 190.422 153.945,191.477 154.736,192.491 155.758 C 193.505 156.781,194.071 157.276,193.749 156.859 C 193.280 156.251,193.416 156.285,194.434 157.030 C 195.645 157.917,196.203 158.558,195.252 157.971 C 194.970 157.796,194.907 157.864,195.084 158.149 C 195.239 158.401,195.491 158.529,195.643 158.435 C 195.796 158.341,196.355 158.617,196.886 159.049 C 197.417 159.480,197.605 159.703,197.303 159.544 C 196.929 159.346,196.848 159.406,197.049 159.731 C 197.211 159.994,197.435 160.117,197.547 160.005 C 197.659 159.893,198.541 160.406,199.508 161.144 L 201.266 162.486 202.488 161.616 C 203.161 161.137,206.084 158.857,208.984 156.549 L 214.258 152.352 240.714 152.348 L 267.170 152.344 267.286 159.668 C 267.349 163.696,267.441 159.387,267.490 150.092 L 267.578 133.192 266.241 131.733 L 264.904 130.273 238.763 130.165 L 212.621 130.057 207.231 134.169 C 204.267 136.431,201.709 138.281,201.547 138.281 C 201.386 138.281,198.730 136.440,195.646 134.190 L 190.039 130.099 164.648 130.106 C 143.537 130.111,138.995 130.207,137.695 130.675 M110.455 178.874 L 109.180 180.013 109.070 196.452 L 108.960 212.891 144.689 212.891 L 180.418 212.891 185.229 216.675 C 187.874 218.757,192.412 222.335,195.313 224.628 C 198.213 226.920,200.993 229.008,201.491 229.269 C 202.635 229.868,202.217 230.144,212.647 221.904 C 217.228 218.285,221.732 214.777,222.656 214.108 L 224.336 212.891 259.034 212.891 L 293.732 212.891 293.839 197.948 C 293.961 180.746,293.901 179.918,292.424 178.647 L 291.363 177.734 255.349 177.736 L 219.336 177.737 211.914 183.621 C 200.981 192.288,203.124 192.248,192.349 183.994 L 184.180 177.736 147.955 177.735 L 111.731 177.734 110.455 178.874 M85.283 224.007 C 82.751 225.109,82.709 225.310,82.769 236.030 L 82.813 243.741 129.395 243.843 L 175.977 243.945 183.984 250.310 C 188.389 253.810,193.972 258.253,196.391 260.183 C 202.321 264.914,203.834 265.142,206.641 261.728 C 206.748 261.597,208.330 260.355,210.156 258.968 C 211.982 257.580,213.723 256.211,214.024 255.925 C 214.326 255.639,215.468 254.734,216.564 253.914 C 218.514 252.453,222.716 249.204,227.184 245.703 L 229.427 243.945 275.065 243.843 L 320.703 243.740 320.703 235.640 C 320.702 226.462,320.440 225.358,317.969 224.119 C 316.686 223.475,313.879 223.439,272.266 223.533 L 227.930 223.633 222.526 227.734 C 214.620 233.735,211.526 236.060,210.568 236.719 C 210.099 237.041,208.471 238.238,206.950 239.378 C 205.247 240.655,204.046 241.312,203.822 241.088 C 203.412 240.677,201.570 241.385,201.566 241.955 C 201.564 242.150,201.181 241.974,200.714 241.564 C 200.234 241.143,200.011 241.068,200.201 241.390 C 200.386 241.703,199.559 241.175,198.365 240.218 C 194.427 237.062,177.726 224.424,176.843 223.932 C 175.493 223.180,87.018 223.253,85.283 224.007 " stroke="none" fill="#eb9950" fill-rule="evenodd"></path><path id="path2" d="M82.511 243.457 L 82.422 258.594 127.441 258.597 L 172.461 258.601 187.105 269.554 C 203.973 282.169,201.907 281.394,207.420 277.171 C 209.462 275.606,215.791 270.789,221.484 266.467 L 231.836 258.609 276.270 258.601 L 320.703 258.594 320.703 251.167 L 320.703 243.740 275.065 243.843 L 229.427 243.945 227.184 245.703 C 222.716 249.204,218.514 252.453,216.564 253.914 C 215.468 254.734,214.326 255.639,214.024 255.925 C 213.723 256.211,211.982 257.580,210.156 258.968 C 208.330 260.355,206.748 261.597,206.641 261.728 C 203.834 265.142,202.321 264.914,196.391 260.183 C 193.972 258.253,188.389 253.810,183.984 250.310 L 175.977 243.945 129.403 243.843 L 82.829 243.741 82.714 236.030 C 82.651 231.790,82.560 235.132,82.511 243.457 M225.000 276.653 C 218.447 281.255,210.812 286.633,208.034 288.604 C 201.961 292.911,202.249 292.891,197.424 289.339 C 195.296 287.773,187.973 282.499,181.150 277.620 L 168.746 268.750 147.947 268.789 C 136.508 268.810,127.588 268.969,128.125 269.141 C 128.836 269.368,128.359 269.471,126.367 269.520 C 124.451 269.566,123.866 269.687,124.414 269.922 C 125.151 270.239,124.769 270.407,123.583 270.288 C 123.449 270.274,123.137 270.670,122.890 271.167 C 122.643 271.664,122.006 272.132,121.475 272.207 C 120.943 272.283,120.387 272.539,120.240 272.776 C 120.092 273.013,119.389 273.273,118.677 273.352 C 117.965 273.432,117.324 273.660,117.253 273.858 C 117.181 274.056,116.958 274.219,116.757 274.219 C 116.555 274.219,115.695 274.658,114.844 275.195 C 113.993 275.732,112.931 276.172,112.485 276.172 C 111.946 276.172,111.767 276.336,111.954 276.660 C 112.108 276.929,112.091 277.018,111.915 276.859 C 111.739 276.700,111.326 276.787,110.996 277.054 C 110.544 277.420,110.467 277.423,110.682 277.065 C 110.877 276.739,110.523 276.776,109.549 277.182 C 108.770 277.508,108.246 277.590,108.386 277.364 C 108.536 277.121,108.270 276.956,107.738 276.959 C 107.161 276.963,107.008 277.074,107.312 277.268 C 107.634 277.472,107.353 277.804,106.444 278.294 C 105.672 278.709,105.211 279.201,105.360 279.450 C 105.502 279.688,105.344 279.660,105.008 279.389 C 104.488 278.967,104.405 279.025,104.445 279.779 C 104.487 280.558,104.333 280.648,103.166 280.531 C 101.662 280.380,100.000 281.113,100.000 281.926 C 100.000 282.266,99.671 282.425,99.125 282.349 C 98.644 282.282,98.249 282.432,98.246 282.682 C 98.244 282.933,98.082 283.285,97.887 283.464 C 97.680 283.653,97.649 283.584,97.812 283.301 C 97.985 283.001,97.863 282.813,97.496 282.813 C 97.107 282.813,96.984 283.032,97.142 283.444 C 97.334 283.946,97.212 284.020,96.542 283.807 C 95.958 283.622,95.627 283.728,95.464 284.153 C 95.325 284.516,94.764 284.766,94.087 284.766 C 93.433 284.766,92.848 285.016,92.720 285.349 C 92.597 285.670,92.331 285.831,92.129 285.706 C 91.928 285.582,91.547 285.659,91.282 285.878 C 90.802 286.277,88.152 286.568,81.348 286.971 C 79.360 287.089,77.734 287.344,77.734 287.538 C 77.734 287.745,92.816 287.894,114.355 287.898 C 165.674 287.908,168.282 288.015,166.944 290.058 C 166.611 290.566,166.434 291.135,166.551 291.324 C 166.667 291.512,166.507 291.696,166.194 291.732 C 165.881 291.768,165.374 291.826,165.068 291.862 C 164.461 291.933,163.911 293.359,164.490 293.359 C 164.684 293.359,164.844 293.505,164.844 293.682 C 164.844 293.860,164.316 293.928,163.672 293.833 C 162.783 293.703,162.500 293.813,162.500 294.292 C 162.500 294.638,162.280 294.942,162.012 294.967 C 161.743 294.992,161.260 295.036,160.939 295.065 C 160.617 295.094,160.353 295.381,160.352 295.703 C 160.351 296.155,159.842 296.289,158.136 296.291 C 155.497 296.293,154.881 296.686,156.695 297.208 L 158.008 297.586 156.348 297.621 C 155.416 297.641,154.688 297.846,154.688 298.089 C 154.688 298.326,154.960 298.416,155.294 298.288 C 155.641 298.155,155.798 298.221,155.661 298.442 C 155.530 298.654,154.862 298.849,154.176 298.873 C 153.336 298.904,153.184 298.982,153.711 299.114 C 154.141 299.221,154.624 299.509,154.785 299.752 C 154.993 300.066,155.190 300.025,155.463 299.609 C 155.720 299.218,155.849 299.185,155.853 299.512 C 155.858 299.859,156.715 300.000,158.821 300.000 L 161.784 300.000 161.676 305.657 L 161.569 311.314 163.890 312.942 C 166.313 314.643,188.717 329.975,196.471 335.240 C 198.934 336.913,201.321 338.281,201.774 338.281 C 202.556 338.281,207.113 335.320,217.188 328.267 C 219.658 326.537,226.206 322.018,231.738 318.225 L 241.796 311.328 268.815 311.328 C 283.675 311.328,295.760 311.258,295.671 311.173 C 295.527 311.037,286.940 310.513,284.392 310.485 C 283.864 310.479,283.248 310.226,283.024 309.924 C 282.800 309.621,281.873 309.345,280.963 309.310 C 279.736 309.264,279.250 309.062,279.081 308.530 C 278.901 307.962,278.454 307.813,276.941 307.813 C 275.427 307.813,274.940 307.649,274.609 307.031 C 274.379 306.602,274.307 306.250,274.448 306.250 C 274.589 306.250,274.489 305.989,274.224 305.671 C 273.826 305.190,273.918 305.025,274.762 304.704 C 275.962 304.248,276.126 303.889,275.000 304.184 C 274.570 304.296,274.219 304.211,274.219 303.995 C 274.219 303.779,275.054 303.597,276.074 303.589 C 280.215 303.558,280.357 303.458,277.550 302.551 C 276.906 302.342,276.874 302.242,277.355 301.938 C 277.671 301.738,277.754 301.548,277.539 301.516 C 276.133 301.307,274.169 301.178,272.666 301.196 C 268.834 301.242,271.696 300.735,276.222 300.566 C 278.880 300.467,282.725 300.302,284.766 300.199 C 286.807 300.096,301.704 300.005,317.871 299.997 L 347.266 299.982 347.266 285.694 L 347.266 271.406 345.937 270.078 L 344.609 268.750 328.457 268.744 C 319.573 268.741,295.342 268.637,274.609 268.512 L 236.914 268.285 225.000 276.653 M346.349 289.644 C 346.028 289.965,345.708 290.075,345.637 289.888 C 345.564 289.696,345.113 289.696,344.599 289.890 C 343.772 290.200,343.746 290.286,344.306 290.847 C 345.174 291.714,345.088 291.790,343.694 291.390 C 343.019 291.197,342.318 291.130,342.136 291.243 C 341.955 291.355,341.904 291.191,342.024 290.879 C 342.144 290.567,342.625 290.194,343.093 290.051 C 343.620 289.890,343.758 289.714,343.455 289.589 C 343.185 289.477,343.063 289.226,343.185 289.029 C 343.306 288.833,343.219 288.672,342.992 288.672 C 342.764 288.672,342.575 288.892,342.572 289.160 C 342.568 289.485,342.441 289.452,342.193 289.063 C 341.880 288.571,342.210 288.445,344.250 288.281 C 346.831 288.074,347.491 288.502,346.349 289.644 M151.469 299.886 C 151.955 299.979,152.658 299.976,153.032 299.878 C 153.405 299.780,153.008 299.704,152.148 299.708 C 151.289 299.712,150.983 299.792,151.469 299.886 M278.748 308.654 C 278.913 308.921,278.856 309.000,278.609 308.847 C 278.380 308.705,278.122 308.797,278.038 309.051 C 277.868 309.561,276.953 309.156,276.953 308.571 C 276.953 308.047,278.415 308.115,278.748 308.654 " stroke="none" fill="#31b6a9" fill-rule="evenodd"></path><path id="path3" d="M198.218 59.082 L 197.070 60.352 198.340 59.204 C 199.038 58.573,199.609 58.002,199.609 57.935 C 199.609 57.633,199.287 57.899,198.218 59.082 M201.503 58.002 C 201.428 58.077,201.380 67.996,201.397 80.046 L 201.426 101.953 183.233 101.949 C 173.226 101.946,164.336 101.820,163.477 101.668 L 161.914 101.392 163.281 101.138 L 164.648 100.884 163.225 100.833 C 162.315 100.800,161.725 100.982,161.588 101.339 C 161.471 101.646,160.880 101.953,160.277 102.023 L 159.180 102.148 159.075 110.840 L 158.969 119.531 176.326 119.531 L 193.682 119.531 196.782 121.830 C 201.493 125.322,201.369 125.283,203.267 123.884 C 204.156 123.228,205.838 122.025,207.006 121.209 L 209.129 119.727 226.244 119.617 L 243.359 119.508 243.359 110.559 L 243.359 101.610 241.771 99.731 C 240.898 98.697,238.861 96.577,237.246 95.020 C 235.631 93.462,234.442 92.188,234.604 92.188 C 234.765 92.188,233.681 90.913,232.195 89.354 C 230.708 87.796,227.125 83.973,224.232 80.858 C 221.338 77.744,217.471 73.716,215.638 71.908 C 213.805 70.099,212.568 68.749,212.891 68.907 C 213.213 69.064,211.895 67.648,209.961 65.759 C 208.027 63.870,206.885 62.655,207.422 63.059 C 207.959 63.463,207.142 62.562,205.607 61.056 C 203.038 58.536,201.852 57.653,201.503 58.002 M192.358 65.332 L 191.211 66.602 192.480 65.454 C 193.664 64.385,193.930 64.063,193.628 64.063 C 193.561 64.063,192.989 64.634,192.358 65.332 M172.436 86.816 L 171.289 88.086 172.559 86.939 C 173.742 85.869,174.008 85.547,173.706 85.547 C 173.639 85.547,173.067 86.118,172.436 86.816 M159.914 127.419 C 159.799 127.607,159.554 128.281,159.371 128.919 L 159.039 130.078 174.539 130.088 L 190.039 130.099 195.646 134.190 C 198.730 136.440,201.386 138.281,201.547 138.281 C 201.709 138.281,204.260 136.436,207.217 134.180 L 212.594 130.078 227.781 130.078 C 244.387 130.078,243.587 130.191,242.732 127.962 C 242.454 127.238,210.547 126.994,210.547 127.716 C 210.547 127.921,210.151 128.063,209.668 128.033 C 208.686 127.970,205.876 128.493,205.273 128.850 C 205.059 128.977,204.707 129.100,204.492 129.123 C 203.013 129.284,201.563 129.866,201.563 130.298 C 201.563 130.942,200.059 130.884,199.034 130.201 C 198.610 129.918,197.973 129.688,197.617 129.688 C 197.262 129.688,196.762 129.436,196.507 129.128 C 196.251 128.821,195.510 128.584,194.859 128.603 C 194.208 128.621,193.542 128.421,193.380 128.158 C 192.897 127.377,160.384 126.659,159.914 127.419 M135.048 152.637 C 134.964 152.798,134.874 156.138,134.848 160.059 L 134.801 167.188 160.076 167.189 C 186.827 167.191,187.891 167.262,187.891 169.063 C 187.891 169.241,188.575 169.772,189.412 170.242 C 190.249 170.713,191.042 171.380,191.175 171.726 C 191.327 172.124,191.700 172.280,192.192 172.151 C 192.619 172.040,193.083 172.135,193.224 172.363 C 193.375 172.606,193.294 172.662,193.029 172.498 C 191.913 171.808,192.742 173.005,194.430 174.519 C 196.209 176.114,196.227 176.151,194.855 175.377 C 194.067 174.933,193.210 174.314,192.952 174.003 C 192.694 173.692,192.240 173.438,191.944 173.438 C 191.648 173.438,191.406 173.283,191.406 173.094 C 191.406 172.905,190.835 172.520,190.137 172.238 C 189.438 171.956,188.738 171.516,188.580 171.259 C 188.250 170.724,185.819 170.151,184.375 170.268 C 183.794 170.315,183.580 170.222,183.847 170.037 C 184.823 169.362,147.723 169.081,139.261 169.698 C 134.996 170.010,135.283 169.721,134.873 174.121 L 134.537 177.734 159.358 177.735 L 184.180 177.736 192.349 183.994 C 203.124 192.248,200.981 192.288,211.914 183.621 L 219.336 177.737 243.559 177.736 L 267.781 177.734 267.579 175.017 C 267.347 171.887,267.009 171.405,264.963 171.284 C 257.948 170.867,218.432 170.661,218.198 171.040 C 218.046 171.284,217.330 171.484,216.606 171.484 C 215.882 171.484,215.027 171.748,214.705 172.069 C 214.384 172.391,213.842 172.547,213.501 172.416 C 213.106 172.265,211.819 172.977,209.956 174.380 C 208.347 175.590,207.037 176.445,207.043 176.279 C 207.050 176.113,207.797 175.418,208.703 174.736 C 211.266 172.806,214.256 169.957,214.276 169.426 C 214.285 169.162,214.524 168.995,214.805 169.057 C 215.413 169.189,216.473 168.392,216.224 167.990 C 215.910 167.482,216.749 167.461,242.188 167.318 L 267.383 167.177 267.269 159.760 L 267.155 152.344 240.706 152.348 L 214.258 152.352 208.984 156.549 C 206.084 158.857,203.150 161.145,202.465 161.633 L 201.219 162.519 197.973 159.908 C 196.187 158.472,194.378 157.018,193.952 156.676 C 193.212 156.082,193.203 156.089,193.756 156.836 C 194.074 157.266,193.498 156.773,192.475 155.742 C 191.452 154.710,190.454 153.966,190.256 154.088 C 190.059 154.210,189.771 154.104,189.615 153.852 C 189.428 153.549,189.517 153.491,189.881 153.680 C 190.183 153.837,190.015 153.601,189.508 153.155 C 188.557 152.319,135.481 151.814,135.048 152.637 M293.899 187.695 C 293.900 190.273,293.963 191.277,294.040 189.926 C 294.116 188.575,294.115 186.466,294.038 185.239 C 293.961 184.012,293.898 185.117,293.899 187.695 M126.885 213.184 C 136.838 213.242,153.010 213.242,162.822 213.183 C 172.635 213.125,164.492 213.078,144.727 213.078 C 124.961 213.078,116.932 213.125,126.885 213.184 M241.504 213.183 C 251.118 213.242,266.851 213.242,276.465 213.183 C 286.079 213.125,278.213 213.078,258.984 213.078 C 239.756 213.078,231.890 213.125,241.504 213.183 M207.422 238.563 C 207.100 238.684,206.353 239.122,205.762 239.535 C 205.088 240.007,204.390 240.192,203.887 240.033 C 202.892 239.717,201.170 240.782,201.178 241.708 C 201.181 242.090,201.308 242.213,201.471 241.992 C 202.031 241.230,203.406 240.672,203.786 241.052 C 204.020 241.286,204.795 240.969,205.887 240.193 C 208.443 238.375,208.729 238.072,207.422 238.563 M198.068 239.728 C 198.080 239.899,198.607 240.447,199.239 240.947 C 199.871 241.446,200.293 241.622,200.177 241.337 C 199.926 240.721,198.037 239.280,198.068 239.728 " stroke="none" fill="#dd4232" fill-rule="evenodd"></path><path id="path4" d="M234.375 268.417 C 234.375 268.646,234.101 268.729,233.766 268.600 C 233.432 268.472,232.421 268.753,231.520 269.224 C 230.620 269.696,229.795 270.096,229.688 270.114 C 229.061 270.218,226.527 271.642,226.142 272.106 C 225.891 272.409,225.524 272.656,225.327 272.656 C 224.911 272.656,222.928 274.023,221.502 275.293 C 220.960 275.776,220.359 276.172,220.168 276.172 C 219.976 276.172,218.964 276.787,217.917 277.539 C 216.870 278.291,215.881 278.906,215.718 278.906 C 215.555 278.906,215.198 279.265,214.925 279.703 C 214.651 280.141,214.272 280.403,214.081 280.285 C 213.891 280.167,213.470 280.336,213.145 280.660 C 212.821 280.985,212.367 281.250,212.137 281.250 C 211.907 281.250,211.719 281.426,211.719 281.641 C 211.719 281.855,211.524 282.031,211.286 282.031 C 211.048 282.031,209.539 282.910,207.933 283.984 C 206.327 285.059,204.791 285.938,204.519 285.938 C 203.533 285.938,201.645 287.142,201.448 287.897 C 201.102 289.218,198.340 288.240,194.471 285.427 C 193.872 284.992,193.227 284.801,192.946 284.975 C 192.649 285.159,192.556 285.117,192.709 284.870 C 192.991 284.414,191.911 283.350,191.541 283.720 C 191.214 284.047,189.777 283.237,190.011 282.858 C 190.115 282.690,189.983 282.552,189.717 282.552 C 188.890 282.552,187.103 281.186,187.368 280.756 C 187.511 280.526,187.434 280.464,187.191 280.613 C 186.625 280.963,181.185 276.983,181.510 276.457 C 181.659 276.216,181.571 276.169,181.293 276.340 C 181.036 276.500,180.569 276.417,180.256 276.158 C 179.943 275.898,179.685 275.839,179.682 276.026 C 179.678 276.214,179.546 276.164,179.389 275.916 C 179.005 275.315,171.544 269.922,171.095 269.922 C 170.901 269.922,170.570 269.614,170.359 269.238 C 169.713 268.082,60.386 267.989,58.004 269.142 C 55.416 270.395,55.481 269.819,55.476 291.604 L 55.472 311.323 108.526 311.423 L 161.581 311.523 161.678 305.762 L 161.776 300.000 158.817 300.000 C 156.715 300.000,155.858 299.859,155.853 299.512 C 155.849 299.185,155.720 299.218,155.463 299.609 C 155.190 300.025,154.993 300.066,154.785 299.752 C 154.624 299.509,154.141 299.221,153.711 299.114 C 153.184 298.982,153.336 298.904,154.176 298.873 C 154.862 298.849,155.530 298.654,155.661 298.442 C 155.798 298.221,155.641 298.155,155.294 298.288 C 154.960 298.416,154.688 298.326,154.688 298.089 C 154.688 297.846,155.416 297.641,156.348 297.621 L 158.008 297.586 156.695 297.208 C 154.881 296.686,155.497 296.293,158.136 296.291 C 159.842 296.289,160.351 296.155,160.352 295.703 C 160.353 295.381,160.617 295.094,160.939 295.065 C 161.260 295.036,161.743 294.992,162.012 294.967 C 162.280 294.942,162.500 294.638,162.500 294.292 C 162.500 293.813,162.783 293.703,163.672 293.833 C 164.316 293.928,164.844 293.860,164.844 293.682 C 164.844 293.505,164.684 293.359,164.490 293.359 C 163.911 293.359,164.461 291.933,165.068 291.862 C 165.374 291.826,165.881 291.768,166.194 291.732 C 166.507 291.696,166.667 291.512,166.551 291.324 C 166.434 291.135,166.611 290.566,166.944 290.058 C 168.282 288.015,165.674 287.908,114.355 287.898 C 92.816 287.894,77.734 287.745,77.734 287.538 C 77.734 287.344,79.360 287.089,81.348 286.971 C 88.152 286.568,90.802 286.277,91.282 285.878 C 91.547 285.659,91.928 285.582,92.129 285.706 C 92.331 285.831,92.597 285.670,92.720 285.349 C 92.848 285.016,93.433 284.766,94.087 284.766 C 94.764 284.766,95.325 284.516,95.464 284.153 C 95.627 283.728,95.958 283.622,96.542 283.807 C 97.212 284.020,97.334 283.946,97.142 283.444 C 96.984 283.032,97.107 282.813,97.496 282.813 C 97.863 282.813,97.985 283.001,97.812 283.301 C 97.649 283.584,97.680 283.653,97.887 283.464 C 98.082 283.285,98.244 282.933,98.246 282.682 C 98.249 282.432,98.644 282.282,99.125 282.349 C 99.671 282.425,100.000 282.266,100.000 281.926 C 100.000 281.113,101.662 280.380,103.166 280.531 C 104.333 280.648,104.487 280.558,104.445 279.779 C 104.405 279.025,104.488 278.967,105.008 279.389 C 105.344 279.660,105.502 279.688,105.360 279.450 C 105.211 279.201,105.672 278.709,106.444 278.294 C 107.353 277.804,107.634 277.472,107.312 277.268 C 107.008 277.074,107.161 276.963,107.738 276.959 C 108.239 276.956,108.533 277.126,108.399 277.343 C 108.240 277.600,108.508 277.599,109.190 277.340 C 109.758 277.124,110.371 277.040,110.553 277.152 C 110.735 277.264,110.996 277.175,111.133 276.953 C 111.270 276.731,111.573 276.668,111.806 276.812 C 112.059 276.968,112.118 276.892,111.951 276.623 C 111.775 276.337,111.970 276.172,112.485 276.172 C 112.931 276.172,113.993 275.732,114.844 275.195 C 115.695 274.658,116.555 274.219,116.757 274.219 C 116.958 274.219,117.181 274.056,117.253 273.858 C 117.324 273.660,117.965 273.432,118.677 273.352 C 119.389 273.273,120.092 273.013,120.240 272.776 C 120.387 272.539,120.943 272.283,121.475 272.207 C 122.006 272.132,122.643 271.664,122.890 271.167 C 123.137 270.670,123.449 270.274,123.583 270.288 C 124.769 270.407,125.151 270.239,124.414 269.922 C 123.866 269.687,124.451 269.566,126.367 269.520 C 128.359 269.471,128.836 269.368,128.125 269.141 C 127.588 268.969,136.508 268.810,147.947 268.789 L 168.746 268.750 181.150 277.620 C 187.973 282.499,195.296 287.773,197.424 289.339 C 202.397 293.000,201.533 293.208,211.962 285.840 C 216.903 282.349,224.489 277.031,228.820 274.023 C 237.392 268.069,237.243 268.201,235.546 268.082 C 234.902 268.037,234.375 268.188,234.375 268.417 M237.988 268.238 C 238.364 268.336,238.979 268.336,239.355 268.238 C 239.731 268.140,239.424 268.059,238.672 268.059 C 237.920 268.059,237.612 268.140,237.988 268.238 M241.699 268.255 C 242.612 268.337,244.106 268.337,245.020 268.255 C 245.933 268.173,245.186 268.105,243.359 268.105 C 241.533 268.105,240.786 268.173,241.699 268.255 M249.707 268.238 C 250.083 268.336,250.698 268.336,251.074 268.238 C 251.450 268.140,251.143 268.059,250.391 268.059 C 249.639 268.059,249.331 268.140,249.707 268.238 M260.645 268.238 C 261.021 268.336,261.636 268.336,262.012 268.238 C 262.388 268.140,262.080 268.059,261.328 268.059 C 260.576 268.059,260.269 268.140,260.645 268.238 M295.334 268.381 C 295.895 268.736,344.054 268.924,343.700 268.570 C 343.601 268.471,332.551 268.308,319.145 268.207 C 304.346 268.096,294.991 268.164,295.334 268.381 M285.462 268.648 C 286.597 268.727,288.355 268.726,289.369 268.646 C 290.382 268.566,289.453 268.501,287.305 268.502 C 285.156 268.503,284.327 268.569,285.462 268.648 M347.266 286.319 L 347.266 299.982 317.871 299.997 C 301.704 300.005,286.807 300.096,284.766 300.199 C 282.725 300.302,278.880 300.467,276.222 300.566 C 271.696 300.735,268.834 301.242,272.666 301.196 C 274.169 301.178,276.133 301.307,277.539 301.516 C 277.754 301.548,277.671 301.738,277.355 301.938 C 276.874 302.242,276.906 302.342,277.550 302.551 C 280.357 303.458,280.215 303.558,276.074 303.589 C 275.054 303.597,274.219 303.779,274.219 303.995 C 274.219 304.211,274.570 304.296,275.000 304.184 C 276.126 303.889,275.962 304.248,274.762 304.704 C 273.918 305.025,273.826 305.190,274.224 305.671 C 274.489 305.989,274.589 306.250,274.448 306.250 C 274.307 306.250,274.379 306.602,274.609 307.031 C 274.940 307.649,275.427 307.813,276.941 307.813 C 278.454 307.813,278.901 307.962,279.081 308.530 C 279.250 309.062,279.736 309.264,280.963 309.310 C 281.873 309.345,282.800 309.621,283.024 309.924 C 283.248 310.226,283.864 310.479,284.392 310.485 C 284.920 310.491,286.318 310.600,287.500 310.729 C 288.682 310.857,302.700 311.061,318.652 311.181 L 347.656 311.400 347.656 292.028 C 347.656 281.374,347.568 272.656,347.461 272.656 C 347.354 272.656,347.266 278.805,347.266 286.319 M344.250 288.281 C 342.210 288.445,341.880 288.571,342.193 289.063 C 342.441 289.452,342.568 289.485,342.572 289.160 C 342.575 288.892,342.764 288.672,342.992 288.672 C 343.219 288.672,343.306 288.833,343.185 289.029 C 343.063 289.226,343.185 289.477,343.455 289.589 C 343.758 289.714,343.620 289.890,343.093 290.051 C 342.625 290.194,342.144 290.567,342.024 290.879 C 341.904 291.191,341.955 291.355,342.136 291.243 C 342.318 291.130,343.019 291.197,343.694 291.390 C 345.088 291.790,345.174 291.714,344.306 290.847 C 343.746 290.286,343.772 290.200,344.599 289.890 C 345.113 289.696,345.564 289.696,345.637 289.888 C 345.831 290.398,346.952 289.137,346.806 288.574 C 346.715 288.222,346.000 288.141,344.250 288.281 M153.032 299.878 C 152.658 299.976,151.955 299.979,151.469 299.886 C 150.983 299.792,151.289 299.712,152.148 299.708 C 153.008 299.704,153.405 299.780,153.032 299.878 M276.953 308.571 C 276.953 309.156,277.868 309.561,278.038 309.051 C 278.122 308.797,278.380 308.705,278.609 308.847 C 278.856 309.000,278.913 308.921,278.748 308.654 C 278.415 308.115,276.953 308.047,276.953 308.571 " stroke="none" fill="#0d839a" fill-rule="evenodd"></path></g></svg>